{"title":"Lost World","uid":8819164,"size":1983016196,"categoryP":"video","categoryS":"movies","magnet":"?xt=urn:btih:24ff58917e0c6dac2e3794735c24aaaaf1a92c29&amp;dn=Lost+World&amp;tr=udp%3A%2F%2Ftracker.openbittorrent.com%3A80&amp;tr=udp%3A%2F%2Fopen.demonii.com%3A1337&amp;tr=udp%3A%2F%2Ftracker.coppersurfer.tk%3A6969&amp;tr=udp%3A%2F%2Fexodus.desync.com%3A6969","seeders":0,"leechers":1,"uploader":"Djuki1","files":-1,"time":1376614209,"description":"Format                                   : AVI\nFormat/Info                              : Audio Video Interleave\nFormat profile                           : OpenDML\nFile size                                : 1.85 GiB\nDuration                                 : 2h 25mn\nOverall bit rate                         : 1 819 Kbps\nWriting application                      : Lavf51.12.1\n\nVideo\nID                                       : 0\nFormat                                   : xvid\nCodec ID                                 : xvid\nDuration                                 : 2h 25mn\nBit rate                                 : 1 678 Kbps\nWidth                                    : 720 pixels\nHeight                                   : 404 pixels\nDisplay aspect ratio                     : 16:9\nFrame rate                               : 25.000 fps\nBits/(Pixel*Frame)                       : 0.231\nStream size                              : 1.70 GiB (92%)\n\nAudio\nID                                       : 1\nFormat                                   : MPEG Audio\nFormat version                           : Version 1\nFormat profile                           : Layer 3\nMode                                     : Joint stereo\nMode extension                           : MS Stereo\nCodec ID                                 : 55\nCodec ID/Hint                            : MP3\nDuration                                 : 2h 25mn\nBit rate mode                            : Constant\nBit rate                                 : 128 Kbps\nChannel(s)                               : 2 channels\nSampling rate                            : 44.1 KHz\nCompression mode                         : Lossy\nStream size                              : 133 MiB (7%)\nAlignment                                : Aligned on interleaves\nInterleave, duration                     : 26 ms (0.65 video frame)","torrent":{"xt":"urn:btih:24ff58917e0c6dac2e3794735c24aaaaf1a92c29","amp;dn":"Lost+World","amp;tr":["udp%3A%2F%2Ftracker.openbittorrent.com%3A80","udp%3A%2F%2Fopen.demonii.com%3A1337","udp%3A%2F%2Ftracker.coppersurfer.tk%3A6969","udp%3A%2F%2Fexodus.desync.com%3A6969"],"infoHash":"24ff58917e0c6dac2e3794735c24aaaaf1a92c29","infoHashBuffer":{"type":"Buffer","data":[36,255,88,145,126,12,109,172,46,55,148,115,92,36,170,170,241,169,44,41]},"announce":[],"urlList":[]}}